<?xml version="1.0" encoding="utf-8"?>
<!-- Generator: Adobe Illustrator 28.0.0, SVG Export Plug-In . SVG Version: 6.00 Build 0)  -->
<svg version="1.1" id="Layer_1" xmlns="http://www.w3.org/2000/svg" xmlns:xlink="http://www.w3.org/1999/xlink" x="0px" y="0px"
	 viewBox="0 0 1920 1080" style="enable-background:new 0 0 1920 1080;" xml:space="preserve">
<style type="text/css">
	.st0{font-family:'WorkSans-Regular';}
	.st1{font-size:107.0679px;}
	.st2{fill:#1F79B4;}
	.st3{fill:#1A6CAA;}
	.st4{fill:#133C95;}
	.st5{fill:#19559F;}
	.st6{fill:#175FA5;}
	.st7{fill:#164A9B;}
</style>
<g>
	<text transform="matrix(1 0 0 1 907.9371 687.7258)" class="st0 st1">billion</text>
	<g>
		<path class="st2" d="M692.03,531.88c0-13.68,0.2-27.36-0.09-41.03c-0.12-5.41,1.77-8.31,7.12-9.24
			c19.83-3.45,39.68-8.14,59.13,1.63c3.8,1.91,7.42,1.05,10.76-0.89c9.79-5.7,20.53-5.23,31.02-4.15
			c18.29,1.88,29.14,14.97,30.38,37.65c1.07,19.77,0.56,39.63,0.79,59.45c0.04,3.08-1.15,6.22-3.95,6.39
			c-8.15,0.52-16.41,0.72-24.52-0.05c-4.51-0.43-3.39-5.27-3.41-8.51c-0.1-14.36-0.12-28.72-0.03-43.08
			c0.04-5.53-0.67-10.9-2.32-16.16c-2.26-7.19-7.46-9.14-14.43-8.11c-7.1,1.04-5.66,6.05-5.62,10.9c0.18,18.8-0.07,37.61,0.14,56.41
			c0.07,6.38-1.9,9.35-8.81,9.22c-26.17-0.46-22.22,3.16-22.63-22.02c-0.23-14.33,1.06-28.7-1.18-43c-1-6.37-3.58-11.05-10.57-11.83
			c-6.32-0.7-10.42,0.58-10.21,8.6c0.49,19.13,0.04,38.29,0.44,57.43c0.16,7.54-1.55,11.18-10.22,10.9
			c-25.09-0.81-21.49,3.38-21.77-21.81C691.93,551.03,692.02,541.46,692.03,531.88z"/>
		<path class="st3" d="M1076.73,574.6c-34.25,15.23-67.88,12.74-100.79-3.99c-9.34-4.75-18.33-10.28-24.86-18.88
			c-6.63-6.66-14.02-13.59-18.63-20.97c-8.73-13.96-22.18-27.5-16.4-46.95c-0.15-16.73-0.46-33.46-0.37-50.19
			c0.03-5.64-1.15-8.78-7.52-6.63c-0.32,0.11-0.66,0.2-0.99,0.26c-26,4.23-32.9-2.84-28.39-28.9c0.68-3.94,2.37-6.28,6.59-6.25
			c2.05,0.01,4.1-0.03,6.15-0.09c19.54-0.59,23.78-3.56,26.35-22.35c1.03-7.52,4.08-9.38,10.48-8.64c6.91,0.8,14.19-2.15,20.77,2.02
			c2.11,21.77,0.51,43.59,0.83,65.38c0.27,18.75-0.02,37.5,0.18,56.25c0.04,4.04,0.6,8.19,3.31,11.59
			c11.62,27.54,31.1,46.27,60.82,52.73c19.36,4.21,37.92,0.1,55.84-7.58c1.01,5.09-3.09,6.39-6.3,7.82
			c-13.97,6.19-28.52,8.52-44.08,5.87c5.8,2.6,12.35,2.55,17.42,6.26c2.58,1.89,7,2.58,6.3,6.96c-0.64,4-3.91,6.14-7.52,7.64
			c-2.47,1.03-5.29,0.47-7.68,1.71c13.25,0.29,26.48,0.75,39.13-4.45C1070.47,571.96,1074.02,571.39,1076.73,574.6z"/>
		<path class="st2" d="M916.06,483.81c0.85,23.98,14.88,41.46,29.06,58.87c2.3,2.82,6.02,4.68,5.96,9.05
			c-7.26-4.16-11.15-11.64-17.59-18.5c-6.12,14.47-11.74,28.16-17.7,41.7c-4.65,10.57-9.01,21.39-17.22,29.91
			c-10.61,11.02-34.27,15.11-47.86,8.51c-3.26-1.58-4.61-3.8-3.79-7.36c0.75-3.32,1.56-6.64,2.03-10
			c1.03-7.47,4.53-11.23,12.44-8.72c4.08,1.29,8.1,1.19,12.05-0.33c7.95-3.07,10.37-10.16,6.62-17.81
			c-12.3-25.13-22.27-51.18-30.54-77.91c-2.57-8.29-0.14-10.98,8.45-11.05c20.97-0.17,21.05-0.51,27.89,19.33
			c3.21,9.32,6.05,18.77,9,28.18c0.88,2.81,1.12,5.99,5.19,7.71C907.08,518.45,910.4,500.75,916.06,483.81z"/>
		<path class="st4" d="M1110.91,451.35c-2.04-4.62-4.06-9.26-6.14-13.87c-8.79-19.5-23.93-32.39-42.96-41.24
			c-13.3-7.83-28.06-6.02-42.38-6.3c-0.64-1.04-1.02-2.08-0.49-2.99c5.31-9.04,0.87-13.9-7.27-17.34c-2.86-1.21-6.01-2.8-5.7-6.43
			c0.4-4.74,4.64-2.68,7.3-3.35c18.04-4.52,35.66-1.54,53.2,2.97c31.3,8.68,53.24,28.43,67.6,57.13
			c4.99,15.75,11.1,31.11,11.22,48.16c0.1,14.84-2.99,28.88-7.13,42.88l0.07-0.07c-2.42,2.67-4.6,2.91-6.06-0.82
			c-1.37-3.5-1.44-7.34-2.64-10.91c-2-5.94-2.99-12.14-12.36-7.66c-6.21,2.97-5.28-2.92-4.59-6.34
			C1114.92,473.71,1113.89,462.5,1110.91,451.35z"/>
		<path class="st5" d="M1066.48,362.8c-13.17-0.5-25.85-5.15-39.29-4.04c-5.45,0.45-10.67,1.82-16.05,2.29
			c-1.76,0.15-3.73,0.41-3.61,2.57c0.09,1.77,1.7,2.85,3.5,3.21c1.33,0.27,2.76,0.22,4.02,0.67c10.11,3.64,12.37,12.04,5.43,20.25
			c14.08,1.5,29.16-2.02,41.34,8.47c-29.05-9.41-56.58-7.5-81.27,11.87c-8.43,6.62-15.82,14.53-21.27,24.13
			c-0.82-0.28-1.63-0.55-2.45-0.83c0-15.12-0.02-30.24,0.02-45.35c0.01-2.15,1.04-3.85,2.74-5.24
			C986.59,358.61,1033.65,348.55,1066.48,362.8z"/>
		<path class="st6" d="M1076.73,574.6c-15.54,3.12-30.86,7.95-47.04,5.87c-3.18-0.41-6.75,1.26-10.01-1.99
			c5.32-8.25,18.83,0.64,22-10.66c-7.17-9.47-21.86-5.25-30.14-16.45c12.86,2.05,24.56,3.49,36.18,0.43
			c8.08-2.13,16.68-3.12,22.38-10.38c8.25-6.75,16.5-13.5,24.75-20.25c4.22,4.04-5.21,7.74-0.36,11.67
			c3.48,2.82,8.07,3.67,11.83,5.98c3.54,2.18,6.46,4.91,0.47,7.86c-0.58,0.29-1.88,0.3-1.87,0.56c0.61,11.63-12.32,12.84-16.15,21
			C1085.72,572.18,1081.34,573.6,1076.73,574.6z"/>
		<path class="st7" d="M1088.76,568.24c-6.13-1.69-1.45-3.9,0.08-4.93c6.39-4.31,14.35-6.44,11.88-17.78
			c-1.27-5.83,5.31,1.68,7.79-2.17c-6.05-5.09-14.56-5.95-20.31-11.94c1.08-3.66,6.85-5.11,6.65-10.25
			c15.45-20.95,19.67-44.49,16.06-69.82c7.63,12.53,4.17,25.92,2.49,39.44c13.45-7.81,17.68-4.7,20.46,14.08
			c0.38,2.57-2.34,7.89,4.39,6.02c-7.27,21.5-19.99,38.77-39.44,50.84C1095.42,563.84,1092.11,566.07,1088.76,568.24z"/>
		<path class="st3" d="M953.44,496.27c-5.05-1.96-4.42-6.44-4.42-10.44c-0.01-40.93,0.05-81.86,0.1-122.79
			c3.29,3.08,1.78,7.08,1.79,10.65c0.06,27.99,0.06,55.99-0.17,83.98C950.63,470.63,950.85,483.52,953.44,496.27z"/>
		<path class="st7" d="M1138.17,510.97c1.95-10.23,4.69-20.37,5.68-30.69c1.61-16.67-1.13-32.92-7.26-48.6
			c-1.44-3.68-3.45-7.46-2.52-11.75C1149.01,449.67,1151.31,479.97,1138.17,510.97z"/>
	</g>
</g>
</svg>
